<svg xmlns="http://www.w3.org/2000/svg" viewBox="0 0 191.1 194.09"><defs><style>.cls-1{font-size:19.58px;fill:#616160;font-family:Montserrat-Light, Montserrat;font-weight:300;letter-spacing:0.28em;}.cls-2{letter-spacing:0.29em;}.cls-3{letter-spacing:0.29em;}.cls-4,.cls-5{font-family:Montserrat-Medium, Montserrat;font-weight:500;}.cls-4{letter-spacing:0.29em;}.cls-6{fill:#fff;}.cls-7{fill:#1d1d1b;}</style></defs><g id="Layer_2" data-name="Layer 2"><g id="Layer_2-2" data-name="Layer 2"><text class="cls-1" transform="translate(0 188.94)">P<tspan class="cls-2" x="19.5" y="0">IG</tspan><tspan class="cls-3" x="51.81" y="0">E</tspan><tspan class="cls-2" x="70.53" y="0">ON</tspan><tspan class="cls-4" x="114.27" y="0">PO</tspan><tspan class="cls-5" x="156.25" y="0">S</tspan><tspan class="cls-4" x="173.91" y="0">T</tspan></text><path d="M64.63,0h0a.06.06,0,0,1,0,0ZM149,7.26c-.07-.47-.22-.94-.35-1.45l-.74.36c-4,1.82-8,3.81-12.1,5.43-7.9,3.12-15.88,6-23.83,9a125.68,125.68,0,0,0-17.32,7.68,31.38,31.38,0,0,0-8.16,6.19,13.17,13.17,0,0,0-3.6,9.79,16.4,16.4,0,0,1-2.37,9.45c-2,3.3-1.34,18.56-1.34,18.75,1.06-.92,3.55-15.58,4.26-16.79l.32-.55c.1-.18.2-.37.29-.56l.15-.28.27-.56h0c.18-.37.35-.76.5-1.15l.12-.29c.11-.29.22-.58.32-.88,0-.11.08-.23.11-.34a2,2,0,0,0,.07-.23v0c0-.14.09-.28.13-.43s.09-.31.13-.47c.11-.42.2-.84.29-1.27a2.38,2.38,0,0,1,0-.26c0-.2.07-.39.1-.59a.13.13,0,0,1,0-.06l0-.26c0-.24.07-.47.09-.71a1.64,1.64,0,0,0,0-.22c0-.16,0-.31,0-.46s0-.39,0-.58V43.86c0-.1,0-.2,0-.31s0-.15,0-.23,0-.21,0-.31l0-.22,0-.17,0-.18v-.06l.06-.25a2.46,2.46,0,0,1,.07-.29l0-.14.06-.2a2.25,2.25,0,0,1,.08-.24l0-.1c0-.08,0-.16.08-.24l.18-.44c.06-.15.13-.3.2-.44s.1-.21.16-.32a3.07,3.07,0,0,1,.17-.31L88,39.2l.25-.41a14.41,14.41,0,0,1,1.18-1.55l.68-.72.29-.29.29-.28c.4-.37.8-.72,1.22-1.06l.31-.25.31-.24h0l.31-.24.28-.2.71-.5.33-.22.33-.22.68-.42.55-.33.56-.32.28-.16.56-.31.57-.3.28-.15.58-.29c2.35-1.2,4.75-2.26,7.19-3.25l.39-.16.65-.27,1.19-.47,1.13-.43.11,0,1.15-.44c2-.76,4-1.5,6-2.25l2.63-1q4-1.5,7.9-3c.88-.34,1.76-.67,2.63-1l2.63-1,2.62-1,2.62-1,1-.43h0l.51-.22.5-.22.51-.23c1.18-.54,2.35-1.11,3.54-1.68.68-.33,1.36-.66,2.06-1h0c0,.11-.08.22-.11.33h0c0,.11-.07.22-.11.32a1.42,1.42,0,0,0,0,.16l-.12.31-.06.14c-.06.14-.13.28-.2.41a1.42,1.42,0,0,1-.08.18l0,0a1,1,0,0,1-.1.18,1.14,1.14,0,0,1-.1.19l-.08.13a2.12,2.12,0,0,1-.12.2c0,.08-.1.17-.16.25s-.16.25-.25.37a9.94,9.94,0,0,1-.62.83l-.15.19a.27.27,0,0,0-.07.08c-.12.15-.25.29-.37.43l-.18.19h0c-.09.11-.2.21-.3.32s-.42.42-.63.62l-.33.31c-.22.2-.44.41-.67.6s-.22.2-.34.29l-.23.2-.12.1-.24.2-.45.37-.36.29c-.6.46-1.2.91-1.81,1.34l-.68.47-.68.46-.34.22-.69.45c-1.16.73-2.35,1.43-3.56,2.1-.47.26-.94.52-1.42.77l-.92.49-.92.48-.93.47-.93.47c-.93.47-1.87.92-2.81,1.37l-.94.44-1.86.86-.08,0-.9.4c-1,.42-1.9.84-2.86,1.24l-.8.34-.24.1-.83.34-.1,0-.91.37-1,.38-1,.39-1.94.74-2,.73c-1.6.59-3.22,1.16-4.84,1.71l-.06,0-1,.34-1,.33-2,.65-.24.07-.36.12-.33.11h.68l.24,0h.35l1,0h0l.27,0h0l.82-.08.54-.07.27-.05.82-.13.54-.11,1.06-.23.28-.06.54-.14c1.07-.27,2.12-.58,3.18-.9l1.62-.5.62-.2.68-.22c.76-.25,1.52-.5,2.28-.77l1.1-.39,1.1-.39,1-.37,1.93-.73.73-.29,1.35-.53,2.26-.93.72-.3c1.46-.62,2.92-1.26,4.37-1.9l1.35-.61.71-.32,1.41-.65,1.21-.57.38-.18,1.58-.77.52-.26,4.71-2.36c.11-.06.22-.1.4-.18,0,.07,0,.15,0,.23v0l0,.18s0,.06,0,.09,0,.13,0,.19a1.74,1.74,0,0,0-.05.22v0c0,.06,0,.12-.05.18s-.14.41-.22.61a1.17,1.17,0,0,1-.05.11c0,.09-.08.18-.13.27s-.17.33-.26.49a3,3,0,0,1-.24.38h0l-.25.38c-.29.4-.6.79-.92,1.15q-.17.2-.33.36l-.34.36-.18.18c-.06.05-.11.11-.16.16l-.18.16-.4.37-.14.12-.33.27-.05.05-.37.3-.39.3c-.12.1-.25.19-.39.29l-.39.29-.4.28-.41.27-.4.27-.44.29-.87.55-.08,0-.39.24q-1.8,1.08-3.66,2l-1.4.71-.47.22c-.32.16-.63.31-1,.45l-1,.44-.48.21q-.48.23-1,.42c-.8.35-1.61.69-2.42,1l-.48.2-.49.19-.49.19-.48.2-1.29.49-.64.25-.64.24c-.86.32-1.72.64-2.58.94l-1.3.46-.65.22-1.3.44-2.61.85-1.31.4c-.88.27-1.75.53-2.63.78l-1.33.37-.72.2-1.27.34-.66.17-.67.17-.67.16-.66.17a8.52,8.52,0,0,0-1.26.36l-.1,0-.2.1h0c.66.06,1.31.17,2,.18a25.84,25.84,0,0,0,3-.13h.09l.46,0,.52-.06.52-.08c.32,0,.65-.09,1-.15l1.09-.2,1-.2,1.56-.36,1-.25,1.67-.43.75-.2.85-.23.32-.09.06,0,.87-.25.56-.16.46-.13,2.46-.76.38-.13.6-.2.79-.26.29-.1.53-.18.32-.11.57-.2.24-.08.69-.25.14,0,.68-.25,1-.39.78-.3.77-.3.77-.31.77-.31.57-.24,1-.45,1.33-.58.88-.4c.5-.22,1-.45,1.49-.69l1.5-.72.75-.37c.54-.27,1.07-.56,1.62-.86l.62-.34.21-.11.87-.48c-.1.3-.15.51-.23.71s-.18.4-.28.6l-.09.18-.1.19-.1.17a.08.08,0,0,1,0,0l-.21.35-.35.52h0l-.12.17-.13.17-.11.14-.15.19-.19.22-.22.26-.29.31h0l-.3.3-.29.28,0,0-.3.27c-.12.12-.25.23-.38.34l-.64.54-.24.19-.57.44-.29.22-.59.42-.29.21-.3.2-.3.2-.3.2-.6.38-.62.37-.29.18,0,0-.29.17-.59.33-.11.06-.54.3h0c-.42.22-.84.44-1.27.65l-.64.32-.65.32-.08,0-.57.27-.66.3-.63.29-1.26.55-1.27.54-.81.33c-.58.24-1.17.46-1.75.69l-1.29.49-1,.38-.89.32-1.3.45-.88.3-1.08.35-1,.32-1,.31-.66.2-.61.18-1.37.41-.63.18-1.6.46-1,.28-.12,0-.61.17-1,.26-1.48.39-1.47.38-.49.14-1.73.46-1.72.5h0l1.35.12.81,0h1.83l.4,0,.39,0c.69,0,1.37-.11,2.06-.19l1-.14c.85-.12,1.7-.27,2.54-.44s1.68-.35,2.52-.55l.62-.15,1.25-.32.59-.15.1,0,.55-.14c1.24-.34,2.48-.69,3.7-1.07l.59-.19h.05l1.8-.6.61-.21.6-.21.6-.22.6-.22.6-.23c.8-.3,1.6-.62,2.39-1l.59-.25.59-.25.58-.26c.4-.17.79-.35,1.17-.53l.56-.26,0,0,.56-.27.58-.28.34-.17,0,0,.63-.33.15-.08.37-.19.22-.11.44-.21.42-.18.19-.08h0l-.21.31c-.25.38-.49.77-.74,1.14l-.14.22,0,0c0,.06-.09.13-.14.2l-.19.26-.22.29-.19.24h0l-.39.45c-.19.23-.39.44-.6.66l-.2.21-.21.2-.21.21-.22.2,0,0-.38.34-.23.19-.22.19-.23.18-.46.37-.21.16-.26.19-.2.14-.38.27-.22.15-.37.25-.07.05-.21.14-.25.16-.25.15-.51.31-.51.3-.25.15c-.43.24-.86.48-1.3.71-.28.16-.58.31-.87.46-.58.29-1.16.58-1.76.86l-.44.2-.77.35-1,.44-.28.11-.31.13-.32.13L112,58l-.91.35-.92.34-2.19.75-.59.19-.47.15L106,60l-.94.28-.51.15-.56.16-1.47.41-1.27.35-1.27.34c-2.82.76-5.66,1.49-8.49,2.25l-.32.1-.28.08h0a4.43,4.43,0,0,1-.72.17v0h1.25l.41,0,.79,0,1.15,0h.57c.19,0,.38,0,.57,0l.57,0,.92-.06,1-.09h0c.35,0,.7-.07,1.05-.12l.53-.06.62-.08,1-.15c1.77-.28,3.52-.65,5.26-1.09l.47-.11c1-.27,2.06-.56,3.08-.87l1-.3.5-.16L112.1,61l.38-.13.54-.18.54-.19.53-.19,1.07-.4,1.59-.6.12,0,.09,0,.16-.05.06,0,.12,0c-.07.22-.15.43-.23.63h0l-.18.41-.2.39a1.74,1.74,0,0,1-.1.19l-.1.18-.11.19-.15.23-.2.3-.25.34-.2.24-.2.24-.19.21-.09.1-.15.15a.8.8,0,0,1-.13.13l-.17.17-.15.14-.32.28-.32.27-.17.14-.17.13-.15.12,0,0-.15.11a2.83,2.83,0,0,0-.28.2l-.29.19-.29.19-.29.19,0,0-.26.15-.29.18-.6.33-.23.12-.14.07-.22.11-.63.31-.62.28-.47.2-.47.19-.63.24-.65.22-.29.1-1,.32-.66.19c-.42.13-.85.24-1.28.35h0l-.33.09-.27.06-.25.07-.29.06-.44.11-.37.08-.41.09-.26.05-.55.11-.81.16-.41.07-1.22.21-.77.11q-1.27.19-2.55.33l-.58.06-.62.06-.82.08-.63,0-.61,0h0l-.55,0-1.42.09h-.18l-.47,0h-.09c-2.27.14-8.78.58-9.23.57a52.35,52.35,0,0,0,12.54,1.26c6.39-.13,10.55-.93,13.86-2.08a33,33,0,0,0,6.52-3,26.18,26.18,0,0,0,2.41-1.72s2.38-1.92,6.56-7.52h0s.41-.46.43-.47c1-.61,2-1.12,2.92-1.81a18.22,18.22,0,0,0,6.71-9.13,1.18,1.18,0,0,1,.53-.58,16.94,16.94,0,0,0,7.58-10.85,5.88,5.88,0,0,1,1.42-3.07,14.59,14.59,0,0,0,2.92-5.75,9.07,9.07,0,0,0,.37-4.87.62.62,0,0,1,.17-.49,17.07,17.07,0,0,0,3.17-5.05A15.86,15.86,0,0,0,149,7.26Z"/><path class="cls-6" d="M145.48,11.53c-.16.46-.28.87-.45,1.26a16.39,16.39,0,0,1-4.46,5.53,57,57,0,0,1-10.92,7.26A184.92,184.92,0,0,1,99,38.3l-.6.2v.12c.31,0,.63,0,.94,0a35.49,35.49,0,0,0,9.35-1.85,178.57,178.57,0,0,0,23.22-9.1c2.84-1.31,5.6-2.76,8.4-4.14.11-.06.22-.1.4-.18a6.84,6.84,0,0,1-1.38,3.37,20.84,20.84,0,0,1-5.77,5.18,80.28,80.28,0,0,1-15,7.42A163.11,163.11,0,0,1,97.57,46a6.29,6.29,0,0,0-1.56.5c.66.06,1.31.17,2,.18a39.65,39.65,0,0,0,10.27-1.49,121.67,121.67,0,0,0,24.92-9.14c1.08-.54,2.13-1.15,3.32-1.79-.09.3-.15.51-.23.71A13.61,13.61,0,0,1,132,40.21,44.74,44.74,0,0,1,122.1,46a134,134,0,0,1-20.8,7.23c-2.6.7-5.23,1.35-7.87,2.13.72.06,1.44.15,2.16.17a41.92,41.92,0,0,0,10.75-1.37,90.88,90.88,0,0,0,19.33-6.83c.91-.45,1.78-1,2.8-1.37-.56.83-1.06,1.7-1.67,2.47a24.6,24.6,0,0,1-7.28,5.91,66.71,66.71,0,0,1-14.47,5.92c-4.5,1.31-9,2.45-13.56,3.66l-.61.18v.2c1.53,0,3.07.16,4.59.08a65.15,65.15,0,0,0,17-3.59c1.44-.47,2.85-1,4.27-1.56l.55-.18a10.64,10.64,0,0,1-4.12,5.32,28.73,28.73,0,0,1-10,4.25A73.36,73.36,0,0,1,89.35,70.6l-.62,0h0L79.2,72.49c1.06-.92,3.55-15.58,4.26-16.79a22.05,22.05,0,0,0,3.05-9.52c.07-1,0-1.91.07-2.86a11.14,11.14,0,0,1,3.49-6.8,31.77,31.77,0,0,1,8.45-5.78,175.32,175.32,0,0,1,17.79-7.31q10.55-4,21-8.14C140.07,14.2,142.69,12.82,145.48,11.53Z"/><path class="cls-7" d="M140.06,33.13V96c0,31.37-22.08,57-49.06,57h0c-27,0-49-25.66-49-57h0"/></g></g></svg>